<svg width="100%" height="100%" viewBox="0 0 17 17" fill="none" xmlns="http://www.w3.org/2000/svg">
<path d="M9.02427 11.7427C8.09223 11.7427 7.36731 11.4579 6.84951 10.8883C6.33172 10.3188 6.07282 9.52913 6.07282 8.51942C6.07282 7.48382 6.33819 6.6877 6.86893 6.13107C7.41262 5.56149 8.15696 5.2767 9.10194 5.2767C9.41262 5.2767 9.71035 5.30906 9.99514 5.37379C10.2929 5.42557 10.5841 5.51618 10.8689 5.64563L10.5388 6.6165C10.2929 6.51295 10.0469 6.43528 9.80097 6.3835C9.56796 6.33172 9.32848 6.30583 9.08253 6.30583C8.51295 6.30583 8.07929 6.49353 7.78155 6.86893C7.49676 7.23139 7.35437 7.78155 7.35437 8.51942C7.35437 9.21845 7.49676 9.76214 7.78155 10.1505C8.06634 10.5259 8.48058 10.7136 9.02427 10.7136C9.28317 10.7136 9.55502 10.6812 9.83981 10.6165C10.1375 10.5388 10.4482 10.4353 10.7718 10.3058V11.3544C10.4612 11.4838 10.1634 11.5809 9.87864 11.6456C9.59385 11.7104 9.30906 11.7427 9.02427 11.7427ZM8.5 16.5C7.39968 16.5 6.36408 16.2929 5.3932 15.8786C4.42233 15.4644 3.56796 14.8948 2.8301 14.1699C2.10518 13.432 1.5356 12.5777 1.12136 11.6068C0.70712 10.6359 0.5 9.60032 0.5 8.5C0.5 7.38673 0.70712 6.35113 1.12136 5.3932C1.5356 4.42233 2.10518 3.57443 2.8301 2.84952C3.56796 2.11165 4.42233 1.5356 5.3932 1.12136C6.36408 0.70712 7.39968 0.5 8.5 0.5C9.61327 0.5 10.6489 0.70712 11.6068 1.12136C12.5777 1.5356 13.4256 2.11165 14.1505 2.84952C14.8883 3.57443 15.4644 4.42233 15.8786 5.3932C16.2929 6.35113 16.5 7.38673 16.5 8.5C16.5 9.60032 16.2929 10.6359 15.8786 11.6068C15.4644 12.5777 14.8883 13.432 14.1505 14.1699C13.4256 14.8948 12.5777 15.4644 11.6068 15.8786C10.6489 16.2929 9.61327 16.5 8.5 16.5ZM8.5 15.4126C9.45793 15.4126 10.3511 15.2379 11.1796 14.8883C12.021 14.5259 12.7589 14.0275 13.3932 13.3932C14.0275 12.7589 14.5194 12.0275 14.8689 11.199C15.2314 10.3576 15.4126 9.45793 15.4126 8.5C15.4126 7.54207 15.2314 6.64887 14.8689 5.82039C14.5194 4.97896 14.0275 4.2411 13.3932 3.6068C12.7589 2.97249 12.021 2.48058 11.1796 2.13107C10.3511 1.76861 9.45793 1.58738 8.5 1.58738C7.54207 1.58738 6.6424 1.76861 5.80097 2.13107C4.97249 2.48058 4.2411 2.97249 3.6068 3.6068C2.97249 4.2411 2.47411 4.97896 2.11165 5.82039C1.76214 6.64887 1.58738 7.54207 1.58738 8.5C1.58738 9.45793 1.76214 10.3576 2.11165 11.199C2.47411 12.0275 2.97249 12.7589 3.6068 13.3932C4.2411 14.0275 4.97249 14.5259 5.80097 14.8883C6.6424 15.2379 7.54207 15.4126 8.5 15.4126Z" fill="currentColor"/>
</svg>
