<svg width="100%" height="100%" viewBox="0 0 16 16" fill="none" xmlns="http://www.w3.org/2000/svg">
<path fill-rule="evenodd" clip-rule="evenodd" d="M11.1894 12.9068L13.2423 14.9596L14.1615 14.0404L2.16152 2.04041L1.24228 2.95964L2.66094 4.3783C0.737653 5.97148 0 8.00002 0 8.00002C0 8.00002 2 13.5 8 13.5C9.22394 13.5 10.2814 13.2712 11.1894 12.9068ZM9.46311 11.1805L8.26523 9.98259C8.17846 9.99409 8.08992 10 8 10C6.89543 10 6 9.10459 6 8.00002C6 7.9101 6.00593 7.82157 6.01743 7.73479L4.81956 6.53691C4.61442 6.9821 4.5 7.4777 4.5 8.00002C4.5 9.93302 6.067 11.5 8 11.5C8.52233 11.5 9.01793 11.3856 9.46311 11.1805ZM16 8.00002C16 8.00002 15.2904 9.95135 13.4486 11.5294L11.2416 9.32237C11.4082 8.91439 11.5 8.46793 11.5 8.00002C11.5 6.06703 9.933 4.50002 8 4.50002C7.53209 4.50002 7.08564 4.59184 6.67765 4.75844L4.95582 3.03661C5.83085 2.70533 6.84077 2.50002 8 2.50002C14 2.50002 16 8.00002 16 8.00002ZM10 8.00002C10 8.02656 9.99948 8.05297 9.99846 8.07925L7.92078 6.00156C7.94706 6.00054 7.97347 6.00002 8 6.00002C9.10457 6.00002 10 6.89546 10 8.00002Z" fill="currentColor"/>
</svg>
