<svg width="100%" height="100%" viewBox="0 0 24 24" fill="black" xmlns="http://www.w3.org/2000/svg">
  <path fill-rule="evenodd" clip-rule="evenodd" d="M16.6513 3C15.8766 3 15.1101 3.15141 14.3974 3.44556C13.6847 3.7397 13.0387 4.17095 12.4954 4.71448L12.0013 5.20685L11.5071 4.71434C10.4109 3.61791 8.92303 3 7.37134 3C5.81965 3 4.33178 3.61791 3.23555 4.71434C2.13933 5.81077 1.52159 7.29982 1.52159 8.85165C1.52159 10.4035 2.13933 11.8925 3.23555 12.989L11.3442 21.0976C11.7005 21.4539 12.3022 21.4539 12.6585 21.0976L20.7671 12.989C21.3107 12.4457 21.7418 11.7998 22.0359 11.0872C22.33 10.3745 22.4814 9.60804 22.4814 8.85165C22.4814 8.09526 22.33 7.32878 22.0359 6.61613C21.7418 5.90348 21.3105 5.25735 20.767 4.71413C20.2237 4.17067 19.5778 3.73968 18.8652 3.44556C18.1525 3.15141 17.386 3 16.6513 3Z" fill="current" stroke="current" stroke-width="1.5" stroke-linecap="round" stroke-linejoin="round"/>
</svg>