<svg width="100%" height="100%" viewBox="0 0 131 28" fill="black" xmlns="http://www.w3.org/2000/svg">
<path fill-rule="evenodd" clip-rule="evenodd" d="M1.24705 3.55398C2.91629 1.93326 5.63017 1.9255 7.30866 3.53663L8.96613 5.12758C9.06864 5.09434 9.17278 5.06385 9.27848 5.03619L14.0133 3.79738C16.9902 3.0185 20.0778 4.78876 20.9095 7.75136C21.1615 8.64912 20.6345 9.56823 19.7324 9.80426L15.1008 11.0161L19.3006 15.0474C20.3819 14.7607 21.5876 15.0255 22.4397 15.8434C23.706 17.0589 23.7116 19.0354 22.4523 20.2581L18.6537 23.9463C17.3944 25.169 15.347 25.1749 14.0807 23.9594C13.2213 23.1346 12.9425 21.9592 13.2457 20.9068L1.26379 9.40576C-0.414703 7.79462 -0.422198 5.17469 1.24705 3.55398ZM2.3005 12.505C2.34886 12.3287 2.40548 12.1566 2.46984 11.9891L8.59034 17.864L7.3569 22.3593C7.11017 23.2585 6.15513 23.7944 5.22376 23.5562C2.15024 22.7703 0.318706 19.7276 1.13292 16.7602L2.3005 12.505Z" fill="#4F80FF"/>
<path d="M124.712 17.7357C123.887 18.5732 122.463 17.9714 122.489 16.7965L122.507 15.9669C122.517 15.5394 122.694 15.1328 123.001 14.835L126.677 11.2676C126.997 10.9579 127.424 10.7847 127.868 10.7847C129.38 10.7847 130.148 12.6016 129.095 13.686L126.754 16.0977L124.712 17.7357ZM121.091 22.1667C119.986 22.1667 119.09 21.2713 119.09 20.1667V8.58472C119.09 7.48015 119.986 6.58472 121.091 6.58472C122.195 6.58472 123.091 7.48015 123.091 8.58472V20.1667C123.091 21.2713 122.195 22.1667 121.091 22.1667ZM128.1 22.1667C127.693 22.1667 127.301 22.0205 126.993 21.7549L123.393 18.6456C122.653 18.0063 122.551 16.8958 123.163 16.1328C123.831 15.3002 125.069 15.2194 125.839 15.9582L129.272 19.251C130.373 20.3072 129.626 22.1667 128.1 22.1667Z" fill="#4F80FF"/>
<path d="M112.278 22.3557C111.015 22.3557 109.885 22.1037 108.888 21.5997C107.906 21.0957 107.134 20.4027 106.572 19.5207C106.011 18.6247 105.73 17.6027 105.73 16.4547C105.73 15.3067 106.011 14.2917 106.572 13.4097C107.134 12.5277 107.906 11.8417 108.888 11.3517C109.885 10.8477 111.015 10.5957 112.278 10.5957C113.569 10.5957 114.685 10.8687 115.625 11.4147C116.065 11.6701 116.445 11.9746 116.765 12.328C117.393 13.021 116.989 14.0487 116.156 14.4727L115.904 14.6007C115.147 14.9861 114.268 14.5848 113.541 14.1447C113.148 13.8927 112.72 13.7667 112.257 13.7667C111.794 13.7667 111.372 13.8717 110.993 14.0817C110.615 14.2917 110.313 14.5997 110.088 15.0057C109.878 15.3977 109.772 15.8807 109.772 16.4547C109.772 17.0427 109.878 17.5397 110.088 17.9457C110.313 18.3517 110.615 18.6597 110.993 18.8697C111.372 19.0797 111.794 19.1847 112.257 19.1847C112.72 19.1847 113.148 19.0657 113.541 18.8277C114.263 18.3648 115.153 17.9683 115.917 18.3572L116.156 18.4787C116.989 18.9027 117.393 19.9304 116.765 20.6234C116.445 20.9768 116.065 21.2813 115.625 21.5367C114.685 22.0827 113.569 22.3557 112.278 22.3557Z" fill="#4F80FF"/>
<path d="M98.1505 22.3557C96.9013 22.3557 95.7925 22.1037 94.8241 21.5997C93.8556 21.0957 93.0906 20.4027 92.5292 19.5207C91.9818 18.6247 91.7081 17.6027 91.7081 16.4547C91.7081 15.3067 91.9818 14.2917 92.5292 13.4097C93.0906 12.5277 93.8556 11.8417 94.8241 11.3517C95.7925 10.8477 96.9013 10.5957 98.1505 10.5957C99.3997 10.5957 100.509 10.8477 101.477 11.3517C102.459 11.8417 103.224 12.5277 103.772 13.4097C104.319 14.2917 104.593 15.3067 104.593 16.4547C104.593 17.6027 104.319 18.6247 103.772 19.5207C103.224 20.4027 102.459 21.0957 101.477 21.5997C100.509 22.1037 99.3997 22.3557 98.1505 22.3557ZM98.1505 19.1847C98.6137 19.1847 99.0207 19.0797 99.3716 18.8697C99.7366 18.6597 100.024 18.3517 100.235 17.9457C100.445 17.5257 100.551 17.0287 100.551 16.4547C100.551 15.8807 100.445 15.3977 100.235 15.0057C100.024 14.5997 99.7366 14.2917 99.3716 14.0817C99.0207 13.8717 98.6137 13.7667 98.1505 13.7667C97.7014 13.7667 97.2943 13.8717 96.9294 14.0817C96.5785 14.2917 96.2908 14.5997 96.0662 15.0057C95.8557 15.3977 95.7504 15.8807 95.7504 16.4547C95.7504 17.0287 95.8557 17.5257 96.0662 17.9457C96.2908 18.3517 96.5785 18.6597 96.9294 18.8697C97.2943 19.0797 97.7014 19.1847 98.1505 19.1847Z" fill="#4F80FF"/>
<path d="M87.8242 22.1667C86.7196 22.1667 85.8241 21.2713 85.8241 20.1667V8.58472C85.8241 7.48015 86.7196 6.58472 87.8242 6.58472C88.9288 6.58472 89.8243 7.48015 89.8243 8.58472V20.1667C89.8243 21.2713 88.9288 22.1667 87.8242 22.1667Z" fill="#4F80FF"/>
<path d="M78.3646 22.3557C77.34 22.3557 76.4838 22.1457 75.796 21.7257C75.1223 21.3057 74.617 20.6617 74.2802 19.7937C73.9433 18.9257 73.7749 17.8127 73.7749 16.4547C73.7749 15.1247 73.9503 14.0257 74.3012 13.1577C74.6662 12.2897 75.1925 11.6457 75.8803 11.2257C76.568 10.8057 77.3961 10.5957 78.3646 10.5957C79.4032 10.5957 80.3436 10.8337 81.1858 11.3097C82.0419 11.7857 82.7156 12.4647 83.2069 13.3467C83.7122 14.2147 83.9648 15.2507 83.9648 16.4547C83.9648 17.6727 83.7122 18.7227 83.2069 19.6047C82.7156 20.4727 82.0419 21.1517 81.1858 21.6417C80.3436 22.1177 79.4032 22.3557 78.3646 22.3557ZM73.0907 22.1667C72.0384 22.1667 71.1853 21.3137 71.1853 20.2614V8.58472C71.1853 7.48015 72.0808 6.58472 73.1854 6.58472C74.29 6.58472 75.1855 7.48015 75.1855 8.58472V12.6957L74.9749 16.4547L74.996 20.2137V20.2614C74.996 21.3137 74.1429 22.1667 73.0907 22.1667ZM77.5224 19.1847C77.9716 19.1847 78.3716 19.0797 78.7225 18.8697C79.0874 18.6597 79.3751 18.3517 79.5857 17.9457C79.8103 17.5257 79.9225 17.0287 79.9225 16.4547C79.9225 15.8807 79.8103 15.3977 79.5857 15.0057C79.3751 14.5997 79.0874 14.2917 78.7225 14.0817C78.3716 13.8717 77.9716 13.7667 77.5224 13.7667C77.0733 13.7667 76.6663 13.8717 76.3013 14.0817C75.9504 14.2917 75.6627 14.5997 75.4381 15.0057C75.2276 15.3977 75.1223 15.8807 75.1223 16.4547C75.1223 17.0287 75.2276 17.5257 75.4381 17.9457C75.6627 18.3517 75.9504 18.6597 76.3013 18.8697C76.6663 19.0797 77.0733 19.1847 77.5224 19.1847Z" fill="#4F80FF"/>
<path d="M66.6375 22.1667C65.6966 22.1667 64.9339 21.404 64.9339 20.4631V20.3417C64.9339 20.1473 64.8869 19.9557 64.797 19.7832C64.7071 19.6108 64.6602 19.4192 64.6602 19.2247V15.6147C64.6602 14.9847 64.4637 14.5017 64.0707 14.1657C63.6917 13.8157 63.0812 13.6407 62.239 13.6407C61.6916 13.6407 61.1372 13.7317 60.5758 13.9137C59.78 14.1518 58.7975 13.9307 58.4275 13.1869L58.3636 13.0583C58.0405 12.4088 58.2536 11.6082 58.9257 11.3351C59.2932 11.1859 59.6889 11.0584 60.1126 10.9527C61.0249 10.7147 61.9303 10.5957 62.8285 10.5957C64.6813 10.5957 66.1129 11.0227 67.1235 11.8767C68.1481 12.7167 68.6604 14.0397 68.6604 15.8457V20.3035C68.6604 21.3325 67.8262 22.1667 66.7971 22.1667H66.6375ZM61.5653 22.3557C60.653 22.3557 59.881 22.2017 59.2494 21.8937C58.6178 21.5857 58.1336 21.1657 57.7967 20.6337C57.4739 20.1017 57.3125 19.5067 57.3125 18.8487C57.3125 18.1487 57.4879 17.5467 57.8388 17.0427C58.2038 16.5247 58.7582 16.1327 59.5021 15.8667C60.246 15.5867 61.2074 15.4467 62.3864 15.4467H64.6434C65.2175 15.4467 65.6829 15.9121 65.6829 16.4862C65.6829 17.0603 65.2175 17.5257 64.6434 17.5257H62.9338C62.2882 17.5257 61.832 17.6307 61.5653 17.8407C61.3127 18.0507 61.1864 18.3307 61.1864 18.6807C61.1864 19.0307 61.3197 19.3107 61.5864 19.5207C61.8531 19.7307 62.218 19.8357 62.6812 19.8357C63.1163 19.8357 63.5093 19.7307 63.8602 19.5207C64.1849 19.3263 64.4866 19.0638 64.7542 18.7798C65.203 18.3032 66.295 18.4438 66.4627 19.0766C66.4928 19.1902 66.4958 19.311 66.4455 19.4172C66.0696 20.2105 64.541 21.3893 63.9654 21.7677C63.3619 22.1597 62.5619 22.3557 61.5653 22.3557Z" fill="#4F80FF"/>
<path fill-rule="evenodd" clip-rule="evenodd" d="M35.0833 7C33.7947 7 32.75 8.04467 32.75 9.33333C32.75 10.622 33.7947 11.6667 35.0833 11.6667H37.4286L37.4286 19.8274C37.4286 21.1193 38.4759 22.1667 39.7679 22.1667C41.0598 22.1667 42.1071 21.1193 42.1071 19.8274L42.1071 11.6667H44.4524C45.741 11.6667 46.7857 10.622 46.7857 9.33333C46.7857 8.04467 45.741 7 44.4524 7H35.0833Z" fill="#4F80FF"/>
<path d="M48.2383 21.9098L48.2384 21.9097C47.9118 21.5861 47.7553 21.1607 47.7553 20.6547V12.138C47.7553 11.632 47.9118 11.2066 48.2384 10.8829C48.5634 10.5609 48.9825 10.405 49.4772 10.405H49.5736C49.9387 10.405 50.2698 10.4894 50.5607 10.6634C50.783 10.7906 50.9605 10.9515 51.0873 11.1467C51.892 10.5839 52.7759 10.3 53.7347 10.3C53.9937 10.3 54.2698 10.3297 54.5626 10.3877C54.8664 10.4453 55.135 10.5181 55.367 10.6073L55.3752 10.6105L55.3751 10.6107C55.6684 10.7386 55.9043 10.9397 56.0795 11.2103C56.2564 11.4835 56.3428 11.7949 56.3428 12.138C56.3428 12.4012 56.2931 12.6626 56.1957 12.9211M48.2383 21.9098L56.008 12.852M48.2383 21.9098L48.2421 21.9133C48.5676 22.2197 48.9854 22.3667 49.4772 22.3667H49.5736C50.0654 22.3667 50.4832 22.2197 50.8087 21.9133L50.8092 21.9128C51.15 21.5898 51.3147 21.1634 51.3147 20.6547V15.9907M48.2383 21.9098L50.6716 21.7677M56.1957 12.9211C56.1955 12.9216 56.1953 12.9222 56.1951 12.9227L56.008 12.852M56.1957 12.9211C56.1958 12.9206 56.196 12.9201 56.1962 12.9196L56.008 12.852M56.1957 12.9211C56.0692 13.2726 55.8746 13.5531 55.6054 13.7488C55.3422 13.9401 55.051 14.039 54.7365 14.039C54.6033 14.039 54.4391 14.0038 54.2532 13.946L54.2454 13.9435L54.2378 13.9405C53.9088 13.8076 53.6133 13.745 53.3494 13.745C52.798 13.745 52.3427 13.9345 51.9705 14.3149L51.9703 14.315C51.6165 14.6758 51.3901 15.2249 51.3147 15.9907M56.008 12.852C55.8924 13.174 55.719 13.419 55.4878 13.587C55.2566 13.755 55.0062 13.839 54.7365 13.839C54.6338 13.839 54.4925 13.811 54.3127 13.755C53.9659 13.615 53.6448 13.545 53.3494 13.545C52.7458 13.545 52.2385 13.755 51.8275 14.175C51.4294 14.581 51.1918 15.183 51.1147 15.981M51.3147 15.9907V15.981H51.1147M51.3147 15.9907C51.3144 15.9939 51.3141 15.9971 51.3138 16.0002L51.1147 15.981M51.1147 15.981V20.6547C51.1147 21.1167 50.967 21.4877 50.6716 21.7677M50.6716 21.7677C50.3891 22.0337 50.0231 22.1667 49.5736 22.1667H49.4772C49.0277 22.1667 48.6617 22.0337 48.3791 21.7677C48.0966 21.4877 47.9553 21.1167 47.9553 20.6547V12.138C47.9553 11.676 48.0966 11.305 48.3791 11.025C48.6617 10.745 49.0277 10.605 49.4772 10.605H49.5736C49.9075 10.605 50.2029 10.682 50.4597 10.836L50.6716 21.7677Z" fill="#4F80FF" stroke="#4F80FF" stroke-width="0.4"/>
</svg>
