<svg width="100%" height="100%" viewBox="0 0 24 24" fill="black" xmlns="http://www.w3.org/2000/svg">
<g id="clock">
<g id="Group 2609266">
<path id="Vector (Stroke)" fill-rule="evenodd" clip-rule="evenodd" d="M16.4231 4.30769C15.4842 4.30769 14.7231 5.06881 14.7231 6.00769C14.7231 6.94658 15.4842 7.70769 16.4231 7.70769C17.362 7.70769 18.1231 6.94658 18.1231 6.00769C18.1231 5.06881 17.362 4.30769 16.4231 4.30769ZM13.4154 6.00769C13.4154 4.34659 14.762 3 16.4231 3C18.0842 3 19.4308 4.34659 19.4308 6.00769C19.4308 7.6688 18.0842 9.01538 16.4231 9.01538C14.762 9.01538 13.4154 7.6688 13.4154 6.00769Z" fill="currentColor"/>
<path id="Vector (Stroke)_2" fill-rule="evenodd" clip-rule="evenodd" d="M7.00769 9.79988C6.06881 9.79988 5.30769 10.561 5.30769 11.4999C5.30769 12.4388 6.06881 13.1999 7.00769 13.1999C7.94658 13.1999 8.70769 12.4388 8.70769 11.4999C8.70769 10.561 7.94658 9.79988 7.00769 9.79988ZM4 11.4999C4 9.83878 5.34659 8.49219 7.00769 8.49219C8.6688 8.49219 10.0154 9.83878 10.0154 11.4999C10.0154 13.161 8.6688 14.5076 7.00769 14.5076C5.34659 14.5076 4 13.161 4 11.4999Z" fill="currentColor"/>
<path id="Vector (Stroke)_3" fill-rule="evenodd" clip-rule="evenodd" d="M16.4231 15.2921C15.4842 15.2921 14.7231 16.0532 14.7231 16.9921C14.7231 17.931 15.4842 18.6921 16.4231 18.6921C17.362 18.6921 18.1231 17.931 18.1231 16.9921C18.1231 16.0532 17.362 15.2921 16.4231 15.2921ZM13.4154 16.9921C13.4154 15.331 14.762 13.9844 16.4231 13.9844C18.0842 13.9844 19.4308 15.331 19.4308 16.9921C19.4308 18.6532 18.0842 19.9998 16.4231 19.9998C14.762 19.9998 13.4154 18.6532 13.4154 16.9921Z" fill="currentColor"/>
<path id="Vector (Stroke)_4" fill-rule="evenodd" clip-rule="evenodd" d="M8.47501 12.356C8.65682 12.044 9.05713 11.9385 9.36914 12.1203L14.7281 15.243C15.0401 15.4249 15.1456 15.8252 14.9638 16.1372C14.782 16.4492 14.3817 16.5547 14.0697 16.3729L8.71074 13.2501C8.39874 13.0683 8.2932 12.668 8.47501 12.356Z" fill="currentColor"/>
<path id="Vector (Stroke)_5" fill-rule="evenodd" clip-rule="evenodd" d="M14.9557 6.86346C15.1377 7.17534 15.0325 7.57572 14.7206 7.75773L9.3695 10.8805C9.05761 11.0625 8.65723 10.9572 8.47522 10.6453C8.29321 10.3335 8.3985 9.93307 8.71038 9.75107L14.0615 6.6283C14.3733 6.44629 14.7737 6.55157 14.9557 6.86346Z" fill="currentColor"/>
</g>
</g>
</svg>
