<svg width="100%" height="100%" xmlns="http://www.w3.org/2000/svg" viewBox="0 0 80 78" fill="#4f80ff"><g id="레이어_2" data-name="레이어 2"><g id="레이어_1-2" data-name="레이어 1"><path class="cls-1" d="M76.74,46.76A11.24,11.24,0,0,0,66,44l-14.36-14,15.78-4.17a5.77,5.77,0,0,0,4.09-7.13A19.54,19.54,0,0,0,47.73,5.12L31.92,9.3c-.42.12-.84.24-1.25.38L25,4.17a14.91,14.91,0,0,0-20.74,0,14.11,14.11,0,0,0,.06,20.26l41,39.81a10.63,10.63,0,0,0,2.85,10.57,11.25,11.25,0,0,0,15.64,0L76.78,62A10.63,10.63,0,0,0,76.74,46.76Z"/><path class="cls-1" d="M8.3,33.88c-.16.44-.31.88-.43,1.33l-4,14.73a19.2,19.2,0,0,0,14,23.52,6,6,0,0,0,7.29-4.14l4.11-15.16Z"/></g></g></svg>