<svg width="100%" height="100%" xmlns="http://www.w3.org/2000/svg" viewBox="0 0 409.97 53.58" fill="current"><g id="레이어_2" data-name="레이어 2"><g id="레이어_1-2" data-name="레이어 1"><polygon class="cls-1" points="47.14 0.89 2 0.89 0 10.66 16.58 10.66 8.21 52.69 20.2 52.69 28.64 10.66 45.14 10.66 47.14 0.89"/><path class="cls-1" d="M88.46,28.23A20.36,20.36,0,0,0,91.53,17q0-7.62-5.29-11.84T71.25.89H50.16L39.8,52.69H51.87l2.88-14.51H64.94L73.1,52.69H85.76l-9-15.95a26.38,26.38,0,0,0,3-1.15A19.94,19.94,0,0,0,88.46,28.23ZM76.1,25.94q-3.28,2.7-9.29,2.7H56.63l3.61-18H69.7a12.16,12.16,0,0,1,7.14,1.81,6.39,6.39,0,0,1,2.55,5.59C79.39,21.51,78.3,24.14,76.1,25.94Z"/><path class="cls-1" d="M119.91.89,86.46,52.69h12.8L106,41.59h24.1l2.43,11.1h12L131.82.89Zm-8.33,31.6,12.17-20,4.38,20Z"/><path class="cls-1" d="M197.16,20.94a13.11,13.11,0,0,0,2.55-8.21,10,10,0,0,0-4.48-8.81q-4.47-3-12.91-3h-25L147,52.69h27.16a37.5,37.5,0,0,0,12.06-1.78,17.58,17.58,0,0,0,8.25-5.44,13.93,13.93,0,0,0,3-9.14,10.25,10.25,0,0,0-3.89-8.62A13,13,0,0,0,190.41,26,15.77,15.77,0,0,0,197.16,20.94Zm-17.65-11a11.45,11.45,0,0,1,5.62,1.14,4,4,0,0,1,2,3.74,6.83,6.83,0,0,1-1.18,4,7,7,0,0,1-3.45,2.48,15.61,15.61,0,0,1-5.36.82H165l2.41-12.21Zm3.14,31.85a14,14,0,0,1-7.8,1.89H160.71l2.53-12.8h14.49a11.29,11.29,0,0,1,5.66,1.22,4.35,4.35,0,0,1,2.11,4.11A6.25,6.25,0,0,1,182.65,41.77Z"/><polygon class="cls-1" points="223.06 0.89 211 0.89 200.64 52.69 238.6 52.69 240.6 42.92 214.63 42.92 223.06 0.89"/><path class="cls-1" d="M287.68,2.85A29.73,29.73,0,0,0,274.17,0a34.7,34.7,0,0,0-13.06,2.37A30.46,30.46,0,0,0,251,8.92a28.63,28.63,0,0,0-6.55,9.84,32.47,32.47,0,0,0-2.3,12.32,22.34,22.34,0,0,0,3,11.73,20.7,20.7,0,0,0,8.69,7.92,29.76,29.76,0,0,0,13.51,2.85,34.67,34.67,0,0,0,13.06-2.37,30.61,30.61,0,0,0,10.14-6.55,28.94,28.94,0,0,0,6.54-9.84,32.51,32.51,0,0,0,2.3-12.32,22.34,22.34,0,0,0-3-11.73A20.7,20.7,0,0,0,287.68,2.85ZM286,30.9a19.91,19.91,0,0,1-3.74,6.47,17,17,0,0,1-6,4.4,18.9,18.9,0,0,1-7.88,1.59,16.58,16.58,0,0,1-7.66-1.62,11.56,11.56,0,0,1-4.81-4.55,13.46,13.46,0,0,1-1.66-6.78,23.1,23.1,0,0,1,1.29-7.73,19.48,19.48,0,0,1,3.78-6.47,17.58,17.58,0,0,1,6-4.41,18.69,18.69,0,0,1,7.85-1.59,16.74,16.74,0,0,1,7.73,1.63,11.17,11.17,0,0,1,4.77,4.55,13.65,13.65,0,0,1,1.63,6.77A23.16,23.16,0,0,1,286,30.9Z"/><path class="cls-1" d="M335.82,41.92a19.34,19.34,0,0,1-7.47,1.44,17.43,17.43,0,0,1-7.84-1.62,11.55,11.55,0,0,1-5-4.55,13.31,13.31,0,0,1-1.7-6.85,22.89,22.89,0,0,1,1.33-7.84A19,19,0,0,1,319.06,16a17.52,17.52,0,0,1,6.11-4.29,20,20,0,0,1,7.92-1.52,16.35,16.35,0,0,1,7.4,1.56,13.16,13.16,0,0,1,5.1,4.51l8.66-7.1a17.52,17.52,0,0,0-8.07-6.81A29.93,29.93,0,0,0,333.9,0a34.9,34.9,0,0,0-13.14,2.37,30.46,30.46,0,0,0-10.13,6.55A29,29,0,0,0,304,18.8a32.19,32.19,0,0,0-2.33,12.28,22,22,0,0,0,3.11,11.73,21.1,21.1,0,0,0,8.84,7.92,30.34,30.34,0,0,0,13.65,2.85,34.59,34.59,0,0,0,12.25-2.11,23.68,23.68,0,0,0,9.66-6.85l-7.11-7.25A17.48,17.48,0,0,1,335.82,41.92Z"/><polygon class="cls-1" points="409.97 0.89 395.47 0.89 368.59 24.66 373.34 0.89 361.43 0.89 351.07 52.69 362.98 52.69 365.56 39.81 373.94 32.39 387.25 52.69 400.72 52.69 382.77 24.85 409.97 0.89"/></g></g></svg>