<svg width="100%" height="100%" xmlns="http://www.w3.org/2000/svg" viewBox="0 0 516.54 78"><defs><style>.cls-1{fill:#4f80ff;}.cls-2{fill:#2d3136;}</style></defs><g id="레이어_2" data-name="레이어 2"><g id="레이어_1-2" data-name="레이어 1"><path class="cls-1" d="M76.74,46.76A11.24,11.24,0,0,0,66,44l-14.36-14,15.78-4.17a5.77,5.77,0,0,0,4.09-7.13A19.54,19.54,0,0,0,47.73,5.12L31.92,9.3c-.42.12-.84.24-1.25.38L25,4.17a14.91,14.91,0,0,0-20.74,0,14.11,14.11,0,0,0,.06,20.26l41,39.81a10.63,10.63,0,0,0,2.85,10.57,11.25,11.25,0,0,0,15.64,0L76.78,62A10.63,10.63,0,0,0,76.74,46.76Z"/><path class="cls-1" d="M8.3,33.88c-.16.44-.31.88-.43,1.33l-4,14.73a19.2,19.2,0,0,0,14,23.52,6,6,0,0,0,7.29-4.14l4.11-15.16Z"/><polygon class="cls-2" points="153.71 12.81 108.57 12.81 106.57 22.57 123.15 22.57 114.78 64.61 126.77 64.61 135.21 22.57 151.71 22.57 153.71 12.81"/><path class="cls-2" d="M195,40.15a20.36,20.36,0,0,0,3.07-11.28q0-7.64-5.29-11.84t-15-4.22H156.73l-10.36,51.8h12.07l2.88-14.51h10.19l8.16,14.51h12.66l-9-16a26.38,26.38,0,0,0,3-1.15A19.94,19.94,0,0,0,195,40.15Zm-12.36-2.29q-3.28,2.7-9.29,2.7H163.21l3.6-18h9.46a12.16,12.16,0,0,1,7.14,1.81A6.39,6.39,0,0,1,186,30C186,33.43,184.87,36.06,182.67,37.86Z"/><path class="cls-2" d="M226.48,12.81,193,64.61h12.8l6.77-11.1h24.1l2.43,11.1h12l-12.73-51.8Zm-8.33,31.6,12.17-20,4.38,20Z"/><path class="cls-2" d="M303.73,32.86a13.11,13.11,0,0,0,2.55-8.21,10,10,0,0,0-4.48-8.81q-4.47-3-12.91-3h-25l-10.36,51.8h27.16a37.5,37.5,0,0,0,12.06-1.78A17.66,17.66,0,0,0,301,57.39a14,14,0,0,0,3-9.14q0-5.62-3.89-8.62A13.09,13.09,0,0,0,297,37.88,15.79,15.79,0,0,0,303.73,32.86Zm-17.65-11A11.45,11.45,0,0,1,291.7,23a4,4,0,0,1,2,3.74,6.83,6.83,0,0,1-1.18,4,7,7,0,0,1-3.45,2.48,15.85,15.85,0,0,1-5.36.82H271.53l2.41-12.21Zm3.14,31.85a14,14,0,0,1-7.8,1.89H267.28l2.53-12.8H284.3A11.19,11.19,0,0,1,290,44a4.35,4.35,0,0,1,2.11,4.11A6.26,6.26,0,0,1,289.22,53.69Z"/><polygon class="cls-2" points="329.63 12.81 317.57 12.81 307.21 64.61 345.17 64.61 347.17 54.84 321.2 54.84 329.63 12.81"/><path class="cls-2" d="M394.25,14.77a29.73,29.73,0,0,0-13.51-2.85,34.7,34.7,0,0,0-13.06,2.37,30.46,30.46,0,0,0-10.13,6.55A28.63,28.63,0,0,0,351,30.68,32.47,32.47,0,0,0,348.7,43a22.34,22.34,0,0,0,3,11.73,20.7,20.7,0,0,0,8.69,7.92,29.76,29.76,0,0,0,13.51,2.85A34.67,34.67,0,0,0,387,63.13a30.61,30.61,0,0,0,10.14-6.55,28.79,28.79,0,0,0,6.54-9.84A32.51,32.51,0,0,0,406,34.42a22.42,22.42,0,0,0-3-11.73A20.78,20.78,0,0,0,394.25,14.77Zm-1.7,28a19.85,19.85,0,0,1-3.74,6.48,17,17,0,0,1-6,4.4A18.9,18.9,0,0,1,375,55.28a16.58,16.58,0,0,1-7.66-1.62,11.52,11.52,0,0,1-4.81-4.56,13.4,13.4,0,0,1-1.66-6.77,23.1,23.1,0,0,1,1.29-7.73,19.48,19.48,0,0,1,3.78-6.47,17.52,17.52,0,0,1,6-4.41,18.61,18.61,0,0,1,7.84-1.59,16.61,16.61,0,0,1,7.73,1.63,11.25,11.25,0,0,1,4.78,4.55,13.75,13.75,0,0,1,1.62,6.77A23.1,23.1,0,0,1,392.55,42.81Z"/><path class="cls-2" d="M442.39,53.84a19.34,19.34,0,0,1-7.47,1.44,17.43,17.43,0,0,1-7.84-1.62,11.51,11.51,0,0,1-5-4.56,13.25,13.25,0,0,1-1.7-6.84,22.89,22.89,0,0,1,1.33-7.84,19,19,0,0,1,3.88-6.48,17.62,17.62,0,0,1,6.11-4.29,20,20,0,0,1,7.92-1.52,16.35,16.35,0,0,1,7.4,1.56,13.16,13.16,0,0,1,5.1,4.51l8.66-7.1a17.52,17.52,0,0,0-8.07-6.81,29.93,29.93,0,0,0-12.28-2.37,34.81,34.81,0,0,0-13.13,2.37,30.4,30.4,0,0,0-10.14,6.55,29.13,29.13,0,0,0-6.59,9.88A32.15,32.15,0,0,0,408.28,43a22,22,0,0,0,3.11,11.73,21.1,21.1,0,0,0,8.84,7.92,30.34,30.34,0,0,0,13.65,2.85,34.55,34.55,0,0,0,12.25-2.11,23.61,23.61,0,0,0,9.66-6.85l-7.11-7.25A17.48,17.48,0,0,1,442.39,53.84Z"/><polygon class="cls-2" points="516.54 12.81 502.04 12.81 475.16 36.58 479.91 12.81 468 12.81 457.64 64.61 469.55 64.61 472.13 51.73 480.51 44.31 493.82 64.61 507.29 64.61 489.34 36.77 516.54 12.81"/></g></g></svg>