<svg width="100%" height="100%" viewBox="0 0 103 103" fill="black" xmlns="http://www.w3.org/2000/svg">
<!-- <rect width="103" height="103" rx="5" fill="#F5F7FA"/> -->
<g clip-path="url(#clip0_1024_15216)">
<path d="M69.6874 58.4968L71.8595 56.3247C72.611 55.5731 72.611 54.3546 71.8595 53.6031C71.108 52.8515 69.8895 52.8515 69.1379 53.6031L67.9564 54.7846L64.6114 47.6166C65.5317 46.7357 66.4163 45.8708 67.2554 45.0318C79.3947 32.8925 76.6965 27.5405 76.078 26.922C75.4595 26.3035 70.1075 23.6053 57.9682 35.7446C57.1292 36.5837 56.2643 37.4683 55.3834 38.3886L48.2154 35.0436L49.3969 33.8621C50.1485 33.1105 50.1485 31.892 49.3969 31.1405C48.6454 30.389 47.4269 30.389 46.6753 31.1405L44.5032 33.3126L26.6867 25L22.722 28.9647L46.7517 47.9184C41.6609 53.8347 36.8646 59.9444 33.8449 64.5781L23.9171 61.3465L22 63.2635L31.0087 69.7182C30.5541 70.8997 30.4752 71.7387 30.867 72.1305C31.2588 72.5223 32.0978 72.4435 33.2793 71.9888L39.734 80.9975L41.6511 79.0805L38.4194 69.1527C43.0531 66.1329 49.1628 61.3366 55.0791 56.2458L74.0328 80.2756L77.9975 76.3109L69.685 58.4955L69.6874 58.4968Z" fill="currentColor"/>
</g>
<defs>
<clipPath id="clip0_1024_15216">
<rect width="56" height="56" fill="white" transform="translate(22 25)"/>
</clipPath>
</defs>
</svg>
