<svg width="100%" height="100%" viewBox="0 0 103 103" fill="black" xmlns="http://www.w3.org/2000/svg">
<!-- <rect width="103" height="103" rx="5" fill="#F5F7FA"/> -->
<g clip-path="url(#clip0_1024_15285)">
<path d="M73.1361 47.1504C71.4456 47.1504 69.8367 47.5101 68.3797 48.1541L64.1064 40.7143L65.2046 38.8023C65.2493 38.7251 65.2844 38.6459 65.311 38.5648H65.7068C66.4319 38.5648 67.0204 37.9733 67.0204 37.2444C67.0204 36.5155 66.4319 35.9239 65.7068 35.9239H61.9594C61.2342 35.9239 60.6457 36.5155 60.6457 37.2444C60.6457 37.9733 61.2342 38.5648 61.9594 38.5648H62.3068L61.8445 39.3691H43.6998L46.9897 33.6418H55.0844C55.8096 33.6418 56.3981 33.0503 56.3981 32.3214C56.3981 31.5925 55.8096 31.001 55.0844 31.001H46.4278C46.3993 31.001 46.3727 31.0077 46.3442 31.0096C45.8516 30.9666 45.3561 31.2032 45.0932 31.6612L35.6194 48.155C34.1624 47.511 32.5544 47.1513 30.863 47.1513C24.3221 47.1504 19 52.4998 19 59.0752C19 65.6506 24.3221 71 30.8639 71C37.4057 71 42.7278 65.6506 42.7278 59.0752C42.7278 55.1435 40.8238 51.6507 37.8946 49.4773L41.4398 43.3055L50.8776 59.7354C51.112 60.1438 51.5458 60.3956 52.0157 60.3956H61.349C62.0049 66.3518 67.0413 71 73.138 71C79.6798 71 85.0019 65.6506 85.0019 59.0752C85.0019 52.4998 79.6798 47.1504 73.138 47.1504H73.1361ZM40.0995 59.0752C40.0995 64.1937 35.9563 68.3582 30.8639 68.3582C25.7715 68.3582 21.6283 64.1937 21.6283 59.0752C21.6283 53.9567 25.7715 49.7922 30.8639 49.7922C32.077 49.7922 33.234 50.0307 34.2962 50.4591L29.7268 58.415C29.3642 59.0466 29.5797 59.8547 30.208 60.2191C30.415 60.3393 30.6409 60.3966 30.8639 60.3966C31.3176 60.3966 31.76 60.16 32.0029 59.7364L36.5704 51.7843C38.7185 53.4854 40.1005 56.1205 40.1005 59.0762L40.0995 59.0752ZM66.1064 49.4773C63.5094 51.4036 61.7202 54.3679 61.3471 57.7548H54.3184L62.5896 43.3551L66.1064 49.4773ZM67.4305 51.7833L70.8609 57.7548H63.9954C64.339 55.342 65.609 53.2268 67.4305 51.7833ZM60.2992 42.0089L56.156 49.2217L52.0128 56.4344L43.7273 42.0099H60.2983L60.2992 42.0089ZM73.1361 68.3582C68.4898 68.3582 64.6351 64.8912 63.9954 60.3956H73.1361C73.605 60.3956 74.0388 60.1438 74.2742 59.7354C74.5086 59.3271 74.5086 58.8233 74.2742 58.415L69.7048 50.4591C70.7669 50.0297 71.924 49.7922 73.137 49.7922C78.2294 49.7922 82.3726 53.9567 82.3726 59.0752C82.3726 64.1937 78.2294 68.3582 73.137 68.3582H73.1361Z" fill="current"/>
</g>
<defs>
<clipPath id="clip0_1024_15285">
<rect width="66" height="40" fill="white" transform="translate(19 31)"/>
</clipPath>
</defs>
</svg>
