<svg width="100%" height="100%" viewBox="0 0 103 103" fill="black" xmlns="http://www.w3.org/2000/svg">
<!-- <rect width="103" height="103" rx="5" fill="#F5F7FA"/> -->
<g clip-path="url(#clip0_1024_15229)">
<path d="M36.263 21C33.5098 21 31.2781 23.2378 31.2781 26.0008V60.2389C31.2781 63.002 33.5098 65.2398 36.263 65.2398H67.7378C70.491 65.2398 72.7208 63.002 72.7208 60.2389V26.0008C72.7208 23.2378 70.491 21 67.7378 21H36.263ZM43.7379 24.376C43.7379 23.8272 44.1852 23.3783 44.7349 23.3783H60.4855C61.0324 23.3783 61.4796 23.8272 61.4796 24.376V25.0286C61.4796 25.5793 61.0324 26.0291 60.4855 26.0291H44.7349C44.1862 26.0291 43.7379 25.5802 43.7379 25.0286V24.376ZM40.42 60.652C38.8207 60.652 37.5259 59.3525 37.5259 57.7475C37.5259 56.1425 38.8207 54.843 40.42 54.843C42.0193 54.843 43.3142 56.1425 43.3142 57.7475C43.3142 59.3525 42.0193 60.652 40.42 60.652ZM63.5798 60.652C61.9805 60.652 60.6837 59.3525 60.6837 57.7475C60.6837 56.1425 61.9805 54.843 63.5798 54.843C65.1791 54.843 66.4739 56.1425 66.4739 57.7475C66.4739 59.3525 65.1772 60.652 63.5798 60.652ZM67.9125 47.4771C67.9125 48.6408 66.9654 49.5932 65.8058 49.5932H38.194C37.0344 49.5932 36.0854 48.6408 36.0854 47.4771V30.5047C36.0854 29.3429 37.0344 28.3904 38.194 28.3904H65.8058C66.9654 28.3904 67.9125 29.3429 67.9125 30.5047V47.4771Z" fill="current"/>
<path d="M61.4205 66.8579L64.2874 69.704H39.5885L42.5795 66.7354H37.2525L22 81.8774H27.3269L31.6447 77.5904H72.2313L76.6731 82H82L66.7484 66.857H61.4215L61.4205 66.8579ZM33.9722 75.2791L37.26 72.0144H66.615L69.9028 75.2791H33.9722Z" fill="current"/>
</g>
<defs>
<clipPath id="clip0_1024_15229">
<rect width="60" height="61" fill="white" transform="translate(22 21)"/>
</clipPath>
</defs>
</svg>
