<svg width="100%" height="100%" viewBox="0 0 103 103" fill="black" xmlns="http://www.w3.org/2000/svg">
<!-- <rect width="103" height="103" rx="5" fill="#F5F7FA"/> -->
<g clip-path="url(#clip0_1024_15238)">
<path d="M50.3544 30.591C53.0029 30.591 55.1499 28.444 55.1499 25.7955C55.1499 23.147 53.0029 21 50.3544 21C47.7059 21 45.5588 23.147 45.5588 25.7955C45.5588 28.444 47.7059 30.591 50.3544 30.591Z" fill="currentColor"/>
<path d="M50.2724 58.0409C50.3186 57.8257 50.6157 57.7998 50.6985 58.0032L54.2274 66.5741C54.3038 66.7592 54.3361 66.9593 54.3221 67.1584L53.5042 79.0289C53.4224 80.2159 54.3178 81.2437 55.5048 81.3255C56.6295 81.4029 57.6239 80.6001 57.7842 79.4841L59.4631 67.8095C59.6363 66.6074 59.5287 65.3816 59.151 64.228L56.3722 55.7454C56.0989 54.9103 55.959 54.0364 55.959 53.1571V45.9563L64.8376 51.8614C65.6135 52.3769 66.6553 52.2079 67.2278 51.4718C67.8316 50.6959 67.6917 49.5777 66.9157 48.975L58.9906 42.8117L55.9805 36.3018C54.9344 34.0396 52.6691 32.5911 50.1766 32.5911H48.8884C46.9695 32.5911 45.1529 33.4531 43.9379 34.9382L39.321 40.5861C38.4999 41.5902 38.0048 42.8214 37.9015 44.1139L37.1632 53.3638C37.089 54.2925 37.7444 55.1212 38.6645 55.2633C39.6353 55.4139 40.5447 54.7488 40.6953 53.777L42.1579 44.3313C42.1751 44.2215 42.2246 44.1203 42.3021 44.0396L44.7461 41.4847V52.7783C44.7461 53.1711 44.7181 53.5639 44.6643 53.9535L42.8649 66.7376C42.8337 66.9604 42.7552 67.1735 42.6346 67.3629L36.3346 77.2962C35.7308 78.2486 35.9633 79.5056 36.8684 80.1782C37.823 80.8874 39.1714 80.6894 39.8817 79.7348L47.0513 70.0911C47.612 69.3366 48.0059 68.4703 48.2061 67.5512L50.2724 58.0409Z" fill="currentColor"/>
</g>
<defs>
<clipPath id="clip0_1024_15238">
<rect width="31.6035" height="60" fill="white" transform="translate(36 21)"/>
</clipPath>
</defs>
</svg>
