<svg width="100%" height="100%" viewBox="0 0 103 103" fill="black" xmlns="http://www.w3.org/2000/svg">
<!-- <rect width="103" height="103" rx="5" fill="#F5F7FA"/> -->
<g clip-path="url(#clip0_1024_15259)">
<path d="M20.8219 63.2671C22.0646 63.6457 23.0029 64.1749 23.8786 64.6688C25.2363 65.4337 26.3084 66.0394 28.667 66.0394C31.0256 66.0394 32.0977 65.4337 33.4554 64.6688C35.0507 63.7688 36.8578 62.7492 40.3331 62.7492C43.8084 62.7492 45.6164 63.7688 47.2108 64.6688C48.5685 65.4337 49.6406 66.0394 51.9992 66.0394C54.3578 66.0394 55.4316 65.4337 56.7893 64.6688C58.3829 63.7688 60.1917 62.7492 63.667 62.7492C67.1423 62.7492 68.9503 63.7688 70.5464 64.6688C71.9041 65.4337 72.9771 66.0394 75.3348 66.0394C77.6926 66.0394 78.7655 65.4337 80.1232 64.6688C80.9989 64.1749 81.9372 63.6457 83.1817 63.2671L86.6072 54.2689C86.6939 54.0383 86.5249 53.7922 86.2796 53.7922H79.8059L77.2903 44.2493C76.9653 43.0171 75.852 42.1584 74.5809 42.1584H62.7725L61.9765 38.0155C61.7964 37.0794 60.9799 36.4031 60.0296 36.4031H46.0572C45.1069 36.4031 44.2904 37.0794 44.1103 38.0155L43.3144 42.1584H37.8724C36.5996 42.1584 35.4881 43.0171 35.163 44.2493L32.6458 53.7922H17.7239C17.4778 53.7922 17.3071 54.0391 17.3963 54.2689L20.8219 63.2671ZM56.9437 47.5885V49.5529C56.9437 50.0906 56.5089 50.5286 55.9711 50.5286H54.013C53.477 50.5286 53.0404 50.0906 53.0404 49.5529V47.5885C53.0404 47.0491 53.477 46.6128 54.013 46.6128H55.9711C56.5089 46.6128 56.9437 47.0491 56.9437 47.5885ZM46.3686 47.5885C46.3686 47.0491 46.8034 46.6128 47.3412 46.6128H49.2992C49.8353 46.6128 50.2718 47.0491 50.2718 47.5885V49.5529C50.2718 50.0906 49.8353 50.5286 49.2992 50.5286H47.3412C46.8034 50.5286 46.3686 50.0906 46.3686 49.5529V47.5885ZM66.3876 47.5885C66.3876 47.0491 66.8224 46.6128 67.3602 46.6128H69.3165C69.8543 46.6128 70.2891 47.0491 70.2891 47.5885V49.5529C70.2891 50.0906 69.8543 50.5286 69.3165 50.5286H67.3602C66.8224 50.5286 66.3876 50.0906 66.3876 49.5529V47.5885ZM63.6164 47.5885V49.5529C63.6164 50.0906 63.1816 50.5286 62.6438 50.5286H60.6857C60.1497 50.5286 59.7131 50.0906 59.7131 49.5529V47.5885C59.7131 47.0491 60.1497 46.6128 60.6857 46.6128H62.6438C63.1816 46.6128 63.6164 47.0491 63.6164 47.5885ZM39.6959 47.5885C39.6959 47.0491 40.1307 46.6128 40.6685 46.6128H42.6265C43.1626 46.6128 43.5991 47.0491 43.5991 47.5885V49.5529C43.5991 50.0906 43.1626 50.5286 42.6265 50.5286H40.6685C40.1307 50.5286 39.6959 50.0906 39.6959 49.5529V47.5885Z" fill="current"/>
<path d="M73.2336 33H67.199V42.1566H73.2336V33Z" fill="current"/>
<path d="M86.126 64.0896C83.5607 64.2385 82.1413 65.0387 80.7647 65.8157C79.3607 66.6072 78.0347 67.3549 75.333 67.3549C72.6314 67.3549 71.3046 66.6072 69.9014 65.8157C68.3756 64.9552 66.7975 64.0647 63.6661 64.0647C60.5347 64.0647 58.9566 64.9544 57.4308 65.8157C56.0268 66.6072 54.7008 67.3549 51.9991 67.3549C49.2975 67.3549 47.9715 66.6072 46.5675 65.8157C45.0417 64.9552 43.4636 64.0647 40.3322 64.0647C37.2008 64.0647 35.6236 64.9544 34.0978 65.8157C32.6946 66.6072 31.3686 67.3549 28.667 67.3549C25.9653 67.3549 24.6393 66.6072 23.2353 65.8157C21.8587 65.0387 20.4393 64.2385 17.874 64.0896C17.4005 64.0621 17 64.4355 17 64.9114C17 65.3493 17.3431 65.7072 17.7788 65.7331C19.971 65.8621 21.17 66.5384 22.4317 67.25C23.9575 68.1104 25.5356 69.0009 28.667 69.0009C31.7983 69.0009 33.3756 68.1113 34.9014 67.25C36.3045 66.4584 37.6305 65.7107 40.3322 65.7107C43.0339 65.7107 44.3598 66.4584 45.7638 67.25C47.2896 68.1104 48.8678 69.0009 51.9991 69.0009C55.1305 69.0009 56.7086 68.1113 58.2344 67.25C59.6385 66.4584 60.9644 65.7107 63.6661 65.7107C66.3678 65.7107 67.6946 66.4584 69.0978 67.25C70.6236 68.1104 72.2017 69.0009 75.333 69.0009C78.4644 69.0009 80.0425 68.1113 81.5684 67.25C82.83 66.5384 84.029 65.8621 86.2212 65.7331C86.6569 65.7072 87 65.3493 87 64.9114C87 64.4355 86.5995 64.063 86.126 64.0896Z" fill="current"/>
</g>
<defs>
<clipPath id="clip0_1024_15259">
<rect width="70" height="36" fill="white" transform="translate(17 33)"/>
</clipPath>
</defs>
</svg>
