<svg width="100%" height="100%" viewBox="0 0 103 103" fill="black" xmlns="http://www.w3.org/2000/svg">
<!-- <rect width="103" height="103" rx="5" fill="#F5F7FA"/> -->
<g clip-path="url(#clip0_1024_15246)">
<path d="M69.7097 23H34.2914C31.0229 23 28.3716 25.6556 28.3716 28.932V70.109C28.3716 71.9206 29.8372 73.3898 31.6444 73.3898H72.3545C74.1617 73.3898 75.6273 71.9206 75.6273 70.109V28.932C75.6273 25.6556 72.9782 23 69.7097 23ZM39.3769 26.7293C39.3769 25.9063 40.0502 25.2314 40.8712 25.2314H64.5173C65.3404 25.2314 66.0115 25.9063 66.0115 26.7293V27.7091C66.0115 28.5321 65.3404 29.2048 64.5173 29.2048H40.8712C40.0502 29.2048 39.3769 28.5321 39.3769 27.7091V26.7293ZM38.7962 68.1648C36.9724 68.1648 35.4958 66.6823 35.4958 64.8541C35.4958 63.0259 36.9724 61.5457 38.7962 61.5457C40.62 61.5457 42.0966 63.0281 42.0966 64.8541C42.0966 66.6801 40.62 68.1648 38.7962 68.1648ZM65.2049 68.1648C63.3811 68.1648 61.9023 66.6823 61.9023 64.8541C61.9023 63.0259 63.3811 61.5457 65.2049 61.5457C67.0287 61.5457 68.5053 63.0281 68.5053 64.8541C68.5053 66.6801 67.0264 68.1648 65.2049 68.1648ZM73.0388 54.6383C73.0388 55.532 72.3104 56.2644 71.4167 56.2644H32.5811C31.6896 56.2644 30.959 55.532 30.959 54.6383V33.7383C30.959 32.8447 31.6896 32.1123 32.5811 32.1123H71.4167C72.3104 32.1123 73.0388 32.8447 73.0388 33.7383V54.6383Z" fill="currentColor"/>
<path d="M24.0761 35.2462H27.1539V47.2394H24.0761C22.9301 47.2394 22 46.3071 22 45.1583V37.3263C22 36.1774 22.9301 35.2451 24.0761 35.2451V35.2462Z" fill="currentColor"/>
<path d="M79.9251 47.2394H76.8473V35.2462H79.9251C81.0712 35.2462 82.0012 36.1785 82.0012 37.3273V45.1593C82.0012 46.3082 81.0712 47.2405 79.9251 47.2405V47.2394Z" fill="currentColor"/>
<path d="M31.4327 78.0602V73.3898H39.5576V78.0602C39.5576 79.1306 38.6903 80 37.6225 80H33.3667C32.2989 80 31.4316 79.1306 31.4316 78.0602H31.4327Z" fill="currentColor"/>
<path d="M64.4423 78.0602V73.3898H72.5671V78.0602C72.5671 79.1306 71.6998 80 70.632 80H66.3762C65.3084 80 64.4412 79.1306 64.4412 78.0602H64.4423Z" fill="currentColor"/>
</g>
<defs>
<clipPath id="clip0_1024_15246">
<rect width="60" height="57" fill="white" transform="translate(22 23)"/>
</clipPath>
</defs>
</svg>
