<svg width="100%" height="100%" viewBox="0 0 103 103" fill="currentColor" xmlns="http://www.w3.org/2000/svg">
<g clip-path="url(#clip0_1024_15273)">
<path d="M26.6755 70.9595C26.6755 72.8191 28.1872 74.3307 30.0468 74.3307H32.1091C33.971 74.3307 35.4838 72.8191 35.4838 70.9595V66.6792H26.6755V70.9595Z"/>
<path d="M68.5151 70.9595C68.5151 72.8191 70.0302 74.3307 71.8898 74.3307H73.9522C75.8118 74.3307 77.3234 72.8191 77.3234 70.9595V66.6792H68.5151V70.9595Z"/>
<path d="M77.6138 45.7249H77.4906L70.3068 30.7813C69.4957 29.0934 67.7755 28 65.9263 28H38.0762C36.227 28 34.5068 29.0934 33.6957 30.7813L26.5097 45.7249H26.3864C24.4162 45.7249 22.8147 47.3264 22.8147 49.2966V62.0556C22.8147 64.0235 24.4162 65.6273 26.3864 65.6273H77.6138C79.584 65.6273 81.1855 64.0235 81.1855 62.0556V49.2966C81.1855 47.3264 79.584 45.7249 77.6138 45.7249ZM36.5427 32.1512C36.8354 31.5406 37.423 31.1604 38.0762 31.1604H65.9263C66.5773 31.1604 67.1649 31.5394 67.4564 32.1512L73.0939 43.8733H30.9086L36.5427 32.1512ZM75.0457 55.6761C75.0457 58.0472 73.125 59.9702 70.7516 59.9702C68.3781 59.9702 66.4574 58.0472 66.4574 55.6761C66.4574 53.3049 68.3804 51.382 70.7516 51.382C73.1227 51.382 75.0457 53.3049 75.0457 55.6761ZM37.5416 55.6761C37.5416 58.0472 35.6187 59.9702 33.2475 59.9702C30.8764 59.9702 28.9534 58.0472 28.9534 55.6761C28.9534 53.3049 30.8764 51.382 33.2475 51.382C35.6187 51.382 37.5416 53.3049 37.5416 55.6761Z"/>
<path d="M80.2027 38.3892H75.2795L78.4929 45.0775H80.2027C81.1936 45.0775 81.999 44.2709 81.999 43.2812V40.1865C81.999 39.1957 81.1924 38.3903 80.2027 38.3903V38.3892Z"/>
<path d="M25.5083 45.0775L28.7217 38.3892H23.7962C22.8054 38.3892 22 39.1957 22 40.1854V43.2801C22 44.2709 22.8065 45.0763 23.7962 45.0763H25.5083V45.0775Z"/>
</g>
<defs>
<clipPath id="clip0_1024_15273">
<rect width="60" height="46.3307" fill="white" transform="translate(22 28)"/>
</clipPath>
</defs>
</svg>
