<svg width="100%" height="100%" viewBox="0 0 103 103" fill="currentColor" xmlns="http://www.w3.org/2000/svg">
<g clip-path="url(#clip0_1024_15214)">
<path d="M26.6963 72.7755C26.6963 74.5552 28.1536 76 29.9501 76H32.0221C33.8218 76 35.2791 74.5552 35.2791 72.7755V68.647H26.6963V72.7755Z"/>
<path d="M68.7209 72.7755C68.7209 74.5552 70.1793 76 71.9779 76H74.0499C75.8464 76 77.3037 74.5552 77.3037 72.7755V68.647H68.7209V72.7755Z"/>
<path d="M77.8994 49.6792H77.6662L70.3881 34.6792C69.5709 32.9993 67.8455 31.9136 65.9886 31.9136H38.0124C36.1555 31.9136 34.4301 32.9993 33.6129 34.6792L26.3338 49.6792H26.1006C24.2882 49.6792 22.8171 51.1366 22.8171 52.9342V64.0839C22.8171 65.8793 24.2882 67.3367 26.1006 67.3367H77.8994C79.7117 67.3367 81.1828 65.8793 81.1828 64.0839V52.9342C81.1828 51.1366 79.7117 49.6792 77.8994 49.6792ZM36.4746 36.0421C36.7681 35.4342 37.3585 35.0593 38.0114 35.0593H65.9875C66.6415 35.0593 67.2308 35.4342 67.5244 36.0421L73.1861 47.7063H30.8128L36.4746 36.0421ZM41.245 59.4661C41.245 60.1192 40.7055 60.6557 40.0442 60.6557H31.737C31.0777 60.6557 30.5361 60.1181 30.5361 59.4661V57.553C30.5361 56.8978 31.0788 56.3634 31.737 56.3634H40.0442C40.7055 56.3634 41.245 56.8978 41.245 57.553V59.4661ZM74.8968 59.4661C74.8968 60.1192 74.3573 60.6557 73.6959 60.6557H65.3887C64.7295 60.6557 64.1879 60.1181 64.1879 59.4661V57.553C64.1879 56.8978 64.7305 56.3634 65.3887 56.3634H73.6959C74.3573 56.3634 74.8968 56.8978 74.8968 57.553V59.4661Z"/>
<path d="M80.3285 42.3797H75.593L78.6942 48.772H80.3295C81.2506 48.772 82.002 48.0254 82.002 47.1151V44.0355C82.002 43.1231 81.2506 42.3787 80.3295 42.3787L80.3285 42.3797Z"/>
<path d="M25.3068 48.7719L28.4079 42.3796H23.6725C22.7514 42.3796 22 43.1241 22 44.0365V47.1161C22 48.0254 22.7514 48.773 23.6725 48.773H25.3078L25.3068 48.7719Z"/>
<path d="M58.8228 27.6737C58.6681 26.7329 57.6803 26 56.612 26H47.388C46.3186 26 45.3318 26.7318 45.1771 27.6737L44.6387 30.9423H59.3613L58.8228 27.6737Z"/>
</g>
<defs>
<clipPath id="clip0_1024_15214">
<rect width="60" height="50" fill="white" transform="translate(22 26)"/>
</clipPath>
</defs>
</svg>
