<svg width="100%" height="100%" viewBox="0 0 16 16" fill="current" xmlns="http://www.w3.org/2000/svg">
  <defs>
    <mask id="cutout">
      <rect width="16" height="16" fill="white"/>
      <path fill-rule="evenodd" clip-rule="evenodd" d="M11.9619 4.03769C12.3091 4.38483 12.3091 4.94764 11.9619 5.29477L5.29526 11.9614C4.94813 12.3086 4.38531 12.3086 4.03818 11.9614C3.69105 11.6143 3.69105 11.0515 4.03818 10.7044L10.7048 4.03769C11.052 3.69056 11.6148 3.69056 11.9619 4.03769Z" fill="black"/>
      <path fill-rule="evenodd" clip-rule="evenodd" d="M4.03818 4.03769C4.38531 3.69056 4.94813 3.69056 5.29526 4.03769L11.9619 10.7044C12.3091 11.0515 12.3091 11.6143 11.9619 11.9614C11.6148 12.3086 11.052 12.3086 10.7048 11.9614L4.03818 5.29477C3.69105 4.94764 3.69105 4.38483 4.03818 4.03769Z" fill="black"/>
    </mask>
  </defs>
  <rect width="100%" height="100%" rx="8" mask="url(#cutout)"/>
</svg>