<svg width="100%" height="100%" viewBox="0 0 24 24" fill="black" xmlns="http://www.w3.org/2000/svg">
  <path fill-rule="evenodd" clip-rule="evenodd" d="M12 24C18.6274 24 24 18.6274 24 12C24 5.37258 18.6274 0 12 0C5.37258 0 0 5.37258 0 12C0 18.6274 5.37258 24 12 24ZM17.9429 6.05727C18.4636 6.57797 18.4636 7.42219 17.9429 7.94289L13.8858 12L17.9429 16.0571C18.4636 16.5778 18.4636 17.422 17.9429 17.9427C17.4222 18.4634 16.578 18.4634 16.0573 17.9427L12 13.8856L7.94289 17.9427C7.42219 18.4634 6.57797 18.4634 6.05727 17.9427C5.53657 17.422 5.53657 16.5778 6.05727 16.0571L10.1144 12L6.05727 7.94289C5.53657 7.42219 5.53657 6.57797 6.05727 6.05727C6.57797 5.53657 7.42219 5.53657 7.94289 6.05727L12 10.1144L16.0573 6.05727C16.578 5.53657 17.4222 5.53657 17.9429 6.05727Z" fill="current"/>
</svg>